<?xml version="1.0" standalone="no"?>
<!DOCTYPE svg PUBLIC "-//W3C//DTD SVG 20010904//EN"
 "http://www.w3.org/TR/2001/REC-SVG-20010904/DTD/svg10.dtd">
<svg version="1.0" xmlns="http://www.w3.org/2000/svg"
 width="558.000000pt" height="558.000000pt" viewBox="0 0 558.000000 558.000000"
 preserveAspectRatio="xMidYMid meet">
<metadata>
Created by potrace 1.11, written by Peter Selinger 2001-2013
</metadata>
<g transform="translate(0.000000,558.000000) scale(0.100000,-0.100000)"
fill="#000000" stroke="none">
<path d="M2677 5574 c-1 -1 -49 -5 -107 -9 -58 -4 -107 -8 -110 -10 -3 -1 -32
-6 -65 -9 -82 -10 -190 -32 -321 -66 -291 -77 -551 -193 -814 -365 -247 -161
-506 -404 -696 -655 -176 -231 -311 -488 -413 -784 -42 -120 -49 -177 -31
-218 6 -13 59 -58 118 -100 59 -43 228 -165 377 -273 332 -240 347 -244 365
-98 15 114 21 144 47 248 161 646 676 1159 1323 1320 92 23 119 28 225 43 56
8 381 8 435 0 220 -32 399 -86 585 -177 464 -226 822 -664 955 -1166 11 -44
23 -96 26 -115 3 -19 7 -42 9 -50 7 -24 20 -147 24 -223 1 -11 15 -32 32 -48
l31 -29 420 0 420 0 29 29 c34 35 36 45 25 191 -7 92 -9 110 -32 246 -113 694
-499 1324 -1083 1769 -304 231 -768 436 -1131 499 -19 3 -46 8 -60 11 -14 3
-47 8 -75 11 -27 3 -61 7 -74 9 -71 12 -424 27 -434 19z"/>
<path d="M2798 4136 c-1 -2 -46 -6 -98 -9 -446 -27 -865 -292 -1081 -683 -57
-104 -59 -126 -18 -167 36 -35 613 -449 640 -459 28 -11 43 9 56 74 39 193
197 351 393 392 351 73 670 -249 593 -599 -30 -133 -106 -242 -223 -319 -76
-50 -85 -69 -47 -103 12 -11 117 -87 232 -169 116 -82 215 -152 220 -157 38
-30 137 -97 163 -111 63 -32 103 -7 216 139 127 162 209 332 252 520 30 132
45 350 30 435 -3 14 -7 48 -11 75 -15 123 -69 286 -137 416 -124 239 -327 442
-567 567 -87 46 -239 104 -301 115 -14 3 -36 8 -50 11 -44 10 -83 16 -160 22
-41 3 -80 7 -87 9 -6 2 -13 2 -15 1z"/>
<path d="M40 2762 c-29 -25 -31 -32 -31 -92 0 -36 2 -87 6 -115 3 -27 8 -70
11 -95 15 -139 74 -416 105 -497 6 -15 12 -35 14 -43 14 -66 94 -256 171 -407
76 -147 231 -389 289 -449 5 -6 26 -31 45 -55 19 -24 80 -91 135 -148 375
-388 834 -652 1350 -776 134 -32 172 -40 260 -51 22 -3 51 -7 65 -10 107 -17
422 -22 555 -10 205 20 294 35 457 76 493 124 941 382 1301 750 312 318 543
700 671 1108 32 101 33 150 6 185 -36 45 -742 550 -775 555 -16 2 -38 -3 -48
-10 -18 -14 -21 -23 -32 -123 -36 -315 -199 -684 -410 -932 -64 -75 -193 -203
-242 -239 -21 -16 -40 -32 -43 -35 -3 -4 -49 -36 -103 -72 -229 -154 -504
-257 -782 -294 -114 -15 -493 -7 -525 12 -3 2 -27 6 -54 9 -27 4 -57 11 -68
17 -10 5 -18 7 -18 5 0 -3 -11 -1 -25 4 -14 5 -36 12 -48 14 -40 8 -170 58
-262 100 -241 113 -474 297 -640 506 -33 41 -62 77 -65 80 -42 41 -178 298
-224 423 -35 92 -82 270 -91 338 -2 17 -6 42 -9 57 -3 15 -8 61 -11 102 -7 82
-23 116 -61 130 -15 6 -199 10 -434 10 l-410 0 -30 -28z"/>
</g>
</svg>
