<?xml version="1.0" standalone="no"?>
<!DOCTYPE svg PUBLIC "-//W3C//DTD SVG 20010904//EN"
 "http://www.w3.org/TR/2001/REC-SVG-20010904/DTD/svg10.dtd">
<svg version="1.0" xmlns="http://www.w3.org/2000/svg"
 width="128.000000pt" height="128.000000pt" viewBox="0 0 128.000000 128.000000"
 preserveAspectRatio="xMidYMid meet">
<metadata>
Created by potrace 1.11, written by Peter Selinger 2001-2013
</metadata>
<g transform="translate(0.000000,128.000000) scale(0.100000,-0.100000)"
fill="#000000" stroke="none">
<path d="M765 995 c-22 -8 -47 -23 -55 -33 -13 -15 -21 -17 -40 -10 -48 19
-148 3 -224 -36 -39 -20 -83 -36 -97 -36 -40 0 -76 -35 -115 -113 -43 -85 -97
-141 -153 -158 -32 -10 -41 -17 -41 -35 0 -48 98 -92 180 -79 51 8 47 8 115
-1 28 -3 66 -2 85 3 30 9 48 5 120 -23 47 -18 93 -33 103 -34 29 0 19 -17 -31
-48 -145 -94 -252 -93 -347 2 -27 28 -55 60 -61 71 -7 11 -15 17 -19 13 -19
-18 71 -120 133 -152 66 -34 283 -57 472 -48 25 1 58 2 74 2 42 -1 111 44 155
100 22 27 41 55 43 62 4 10 16 9 56 -5 27 -10 65 -17 84 -15 31 3 33 5 32 42
-1 27 -9 46 -28 65 -25 24 -32 26 -122 26 -93 0 -96 1 -116 27 -25 36 -20 60
15 69 45 12 132 84 151 124 10 21 15 47 12 60 -9 36 -81 121 -112 132 -123 45
-199 53 -269 28z m155 -15 c20 -5 44 -16 54 -23 17 -12 15 -14 -19 -15 -53 -2
-73 -10 -125 -46 l-45 -32 -36 38 c-39 42 -38 46 22 72 40 18 99 20 149 6z
m125 -40 c3 -5 2 -10 -4 -10 -5 0 -13 5 -16 10 -3 6 -2 10 4 10 5 0 13 -4 16
-10z m-362 -14 c41 -17 81 -61 74 -79 -3 -8 -25 -24 -49 -36 -36 -17 -63 -21
-142 -21 -119 0 -145 -10 -220 -91 -51 -54 -59 -59 -98 -59 -24 0 -54 -3 -66
-7 l-24 -6 25 25 c14 14 41 57 61 96 19 38 47 79 62 91 49 38 166 22 193 -26
5 -10 12 -15 16 -11 12 12 -14 45 -51 63 -34 16 -35 18 -17 30 55 39 179 55
236 31z m363 -17 c35 -11 68 -43 78 -76 15 -48 -47 -118 -141 -159 -60 -27
-66 -45 -33 -99 l20 -33 -62 -15 c-54 -14 -65 -14 -89 -1 -36 18 -76 18 -128
0 -43 -16 -39 -16 -183 25 -39 10 -54 11 -82 1 -27 -10 -116 -8 -116 3 0 1 27
31 60 66 56 60 60 62 60 37 0 -43 32 -68 85 -68 59 0 85 25 85 80 0 32 4 40
18 40 14 0 17 -7 14 -39 -5 -54 22 -81 83 -81 58 0 85 25 85 78 0 21 -7 47
-15 59 -14 20 -14 22 6 28 11 4 49 26 84 50 112 77 137 86 170 61 30 -22 9
-54 -89 -135 -100 -84 -108 -106 -53 -159 42 -40 55 -32 16 9 -16 17 -29 39
-29 50 0 10 35 47 85 89 93 78 110 100 101 136 -15 57 -83 55 -170 -6 -123
-86 -266 -135 -330 -112 -77 28 -130 4 -219 -101 -27 -32 -59 -60 -73 -63 -13
-3 -24 -12 -24 -19 0 -19 132 -40 159 -26 29 16 61 14 127 -10 58 -20 110 -21
191 -4 21 5 47 2 71 -8 35 -14 45 -14 117 4 112 27 208 35 243 20 28 -12 52
-47 52 -76 0 -20 -47 -19 -96 1 -29 12 -55 14 -104 10 -98 -10 -160 -11 -212
-1 -29 4 -48 4 -48 -2 0 -5 34 -15 76 -22 74 -14 75 -14 69 -40 -12 -55 -89
-97 -200 -108 -60 -6 -205 5 -205 16 0 4 15 12 34 19 18 7 62 31 96 55 35 23
77 50 94 59 35 19 31 21 -40 18 -37 -1 -73 7 -141 34 -86 33 -92 34 -134 22
-50 -15 -115 -4 -164 28 l-27 18 35 21 c20 12 64 53 98 91 35 38 78 75 96 82
20 9 70 14 128 14 110 0 137 10 242 91 35 27 76 52 91 55 15 3 32 7 37 9 12 4
59 -3 101 -16z m-485 -189 c24 -13 26 -72 3 -94 -18 -19 -85 -21 -102 -4 -17
17 -15 68 5 90 18 20 64 24 94 8z m200 0 c24 -13 26 -72 3 -94 -18 -19 -85
-21 -102 -4 -17 17 -15 68 5 90 18 20 64 24 94 8z m-491 -104 c0 -2 -16 -11
-35 -20 -40 -19 -43 -28 -15 -56 18 -18 18 -21 5 -27 -26 -9 -108 6 -135 26
-41 30 -31 44 40 63 60 15 140 23 140 14z m770 -175 c0 -5 -20 -31 -45 -59
-47 -52 -97 -82 -137 -82 -21 0 -21 2 9 20 32 19 63 66 63 94 0 8 12 19 28 24
34 13 82 15 82 3z"/>
<path d="M466 675 c-7 -19 20 -46 39 -39 8 4 15 17 15 30 0 19 -5 24 -24 24
-13 0 -26 -7 -30 -15z"/>
<path d="M666 675 c-7 -19 20 -46 39 -39 8 4 15 17 15 30 0 19 -5 24 -24 24
-13 0 -26 -7 -30 -15z"/>
</g>
</svg>
